<?xml version="1.0" encoding="UTF-8" standalone="no" ?>
<!DOCTYPE svg PUBLIC "-//W3C//DTD SVG 1.1//EN" "http://www.w3.org/Graphics/SVG/1.1/DTD/svg11.dtd">
<svg xmlns="http://www.w3.org/2000/svg" xmlns:xlink="http://www.w3.org/1999/xlink" version="1.1" width="300" height="300" viewBox="0 0 300 300" xml:space="preserve">
<desc>Created with Fabric.js 5.3.0</desc>
<defs>
</defs>
<g transform="matrix(0 2.2870752749 -1.5333356781 0 233.6248186774 140.3294728949)" id="wJpw5Lm0NhhVOyzUHV1UL"  >
<path style="stroke: none; stroke-width: 1; stroke-dasharray: none; stroke-linecap: butt; stroke-dashoffset: 0; stroke-linejoin: miter; stroke-miterlimit: 4; fill: rgb(16,156,16); fill-rule: nonzero; opacity: 1;"  transform=" translate(-40, -40)" d="M 60 40 L 80 80 L 40 80 L 0 80 L 20 40 L 40 0 L 60 40 z" stroke-linecap="round" />
</g>
<g transform="matrix(1.1975521912 0 0 0.988277931 89.3214803342 140.6494164243)" id="8XiOBI0vUs9AzNhp0IwBK"  >
<path style="stroke: rgb(255,255,255); stroke-width: 0; stroke-dasharray: none; stroke-linecap: butt; stroke-dashoffset: 0; stroke-linejoin: miter; stroke-miterlimit: 4; fill: rgb(16,156,16); fill-rule: nonzero; opacity: 1;"  transform=" translate(0, 0)" d="M -69.47776 -27.29412 L 69.47776 -27.29412 L 69.47776 27.29412 L -69.47776 27.29412 C -69.47776 27.29412 -69.47776 -13.647060000000003 -69.47776 -27.29412" stroke-linecap="round" />
</g>
<g transform="matrix(0 -0.8491926085 0.8901736608 0 30.4147415775 173.6752423067)" id="L-TgHTEov2jwRM3goPj7Q"  >
<path style="stroke: rgb(255,255,255); stroke-width: 0; stroke-dasharray: none; stroke-linecap: butt; stroke-dashoffset: 0; stroke-linejoin: miter; stroke-miterlimit: 4; fill: rgb(16,156,16); fill-rule: nonzero; opacity: 1;"  transform=" translate(0, 0)" d="M -69.47776 -27.29412 L 69.47776 -27.29412 L 69.47776 27.29412 L -69.47776 27.29412 C -69.47776 27.29412 -69.47776 -13.647060000000003 -69.47776 -27.29412" stroke-linecap="round" />
</g>
</svg>